<?xml version="1.0" standalone="no"?><!DOCTYPE svg PUBLIC "-//W3C//DTD SVG 1.1//EN" "http://www.w3.org/Graphics/SVG/1.1/DTD/svg11.dtd"><svg t="1562917452675" class="icon" viewBox="0 0 1024 1024" version="1.1" xmlns="http://www.w3.org/2000/svg" p-id="4989" xmlns:xlink="http://www.w3.org/1999/xlink" width="200" height="200"><defs><style type="text/css"></style></defs><path d="M981.33 234.67h-421.4c15.79-64.05 66.19-115.39 131.38-128.89 23.08-4.78 37.92-27.35 33.12-50.43-4.77-23.07-27.31-37.93-50.42-33.14C569.35 43.88 490.11 130 472.9 234.66H42.67C19.1 234.67 0 253.77 0 277.33v597.33c0 23.56 19.1 42.67 42.67 42.67h938.67c23.56 0 42.67-19.1 42.67-42.67V277.33c-0.01-23.56-19.11-42.66-42.68-42.66zM938.67 832H85.33V320h853.33v512z" fill="#ff4081" p-id="4990"></path><path d="M426.67 533.33h-64v-64c0-23.56-19.1-42.67-42.67-42.67s-42.67 19.1-42.67 42.67v64h-64c-23.56 0-42.67 19.1-42.67 42.67s19.1 42.67 42.67 42.67h64v64c0 23.56 19.1 42.67 42.67 42.67s42.67-19.1 42.67-42.67v-64h64c23.56 0 42.67-19.1 42.67-42.67s-19.11-42.67-42.67-42.67z" fill="#ff4081" p-id="4991"></path><path d="M640 640m-64 0a64 64 0 1 0 128 0 64 64 0 1 0-128 0Z" fill="#ff4081" p-id="4992"></path><path d="M768 512m-64 0a64 64 0 1 0 128 0 64 64 0 1 0-128 0Z" fill="#ff4081" p-id="4993"></path></svg>